<svg xmlns="http://www.w3.org/2000/svg" version="1.1" xmlns:xlink="http://www.w3.org/1999/xlink" width="512" height="512" x="0" y="0" viewBox="0 0 512 512" style="enable-background:new 0 0 512 512" xml:space="preserve" class=""><g><path fill="#f7d291" d="m437.21 346.682-13.014-4.338a16.516 16.516 0 0 1-11.293-15.668V315.52h-99.097v11.156c0 7.109-4.549 13.42-11.293 15.668l-13.015 4.338L269 382l194.5 2z" opacity="1" data-original="#f7d291" class=""></path><path fill="#ecbd83" d="M313.806 315.521c14.265 9.328 31.269 14.802 49.548 14.802 18.28 0 35.283-5.474 49.548-14.802v-34.746h-99.097v34.746z" opacity="1" data-original="#ecbd83" class=""></path><path fill="#a06e50" d="M289.032 214.707c-9.732-11.864-24.774-34.836-24.774-57.804 0-24.774 16.516-49.548 41.29-49.548h24.774v57.806z" opacity="1" data-original="#a06e50"></path><path fill="#b67f5f" d="M437.677 222.968s25.188-37.907 24.774-74.323c-.383-33.67-23.396-66.065-90.839-66.065-82.581 0-74.854 51.317-74.854 51.317 0 14.747 17.047 47.78 33.563 56.038 16.517 8.258 107.356 33.033 107.356 33.033z" opacity="1" data-original="#b67f5f" class=""></path><path fill="#ffe1a0" d="M363.355 313.542c-41.047 0-69.022-33.011-69.022-74.058l11.215-63.314 3.968-9.257a16.516 16.516 0 0 1 15.181-10.01h79.948c18.243 0 33.032 14.789 33.032 33.032v49.548c0 38.236-28.874 69.729-66.007 73.863-2.73.304-5.504.196-8.315.196z" opacity="1" data-original="#ffe1a0"></path><path fill="#ecbd83" d="M363.355 272.516c-7.081 0-13.96-1.411-19.903-4.081a8.257 8.257 0 0 1-4.145-10.919c1.879-4.149 6.766-6.004 10.919-4.145 7.645 3.444 18.613 3.444 26.258 0 4.153-1.871 9.04-.012 10.919 4.145a8.257 8.257 0 0 1-4.145 10.919c-5.944 2.67-12.823 4.081-19.903 4.081z" opacity="1" data-original="#ecbd83" class=""></path><circle cx="330.322" cy="218.839" r="8.258" fill="#6e4848" opacity="1" data-original="#6e4848" class=""></circle><circle cx="396.387" cy="218.839" r="8.258" fill="#6e4848" opacity="1" data-original="#6e4848" class=""></circle><path fill="#f7d291" d="M305.548 239.484V176.17l-16.516 38.536v24.777c0 41.047 33.275 74.323 74.323 74.323 2.794 0 5.601-.16 8.315-.46-37.157-4.112-66.122-35.609-66.122-73.862z" opacity="1" data-original="#f7d291" class=""></path><path fill="#6f6571" d="m472.474 358.437-35.263-11.755c-18.148 20.321-44.467 33.188-73.856 33.188s-55.708-12.867-73.856-33.188l-35.263 11.755c-23.605 7.868-39.526 29.958-39.526 54.84l16.891 16.142h264.296c8.894 0 16.103-7.21 16.103-16.103v-.039c0-24.881-15.922-46.971-39.526-54.84z" opacity="1" data-original="#6f6571"></path><path fill="#785353" d="M122.015 99.114c-27.449.502-51.893 12.601-69.408 31.449l51.059 191.501h111.043a8.258 8.258 0 0 0 8.258-8.258V198.193c.001-55.347-45.373-100.096-100.952-99.079z" opacity="1" data-original="#785353" class=""></path><path fill="#6e4848" d="M90.838 165.161c-20.84-6.843-31.536-20.092-38.231-34.598-17.291 18.612-27.833 43.811-27.833 70.917v112.327a8.258 8.258 0 0 0 8.258 8.258h94.066z" opacity="1" data-original="#6e4848" class=""></path><path fill="#e3aa75" d="m190.227 352.441-22.03-7.344a16.517 16.517 0 0 1-11.293-15.669v-6.023H90.839v6.024c0 7.109-4.549 13.42-11.293 15.668l-22.034 7.345-23.179 65.891h168z" opacity="1" data-original="#e3aa75"></path><path fill="#d29b6e" d="M90.838 323.405c10.121 4.425 21.28 6.917 33.032 6.917s22.911-2.492 33.032-6.917v-34.373H90.838z" opacity="1" data-original="#d29b6e" class=""></path><path fill="#f5b97d" d="M183.959 209.5c-12.226-9.97-43.225-31.865-93.121-44.339l-16.516 24.774L63 227.211v18.267c0 35.188 21.136 65.082 56.25 67.355 4.316.28 8.773.975 12.89.46 32.584-4.068 57.796-31.866 57.796-65.552v-25.523c-.001-4.925-2.16-9.605-5.977-12.718z" opacity="1" data-original="#f5b97d" class=""></path><path fill="#ffffff" d="M123.871 280.774c-7.081 0-13.96-1.411-19.903-4.081a8.257 8.257 0 0 1-4.145-10.919c1.871-4.153 6.766-5.996 10.919-4.145 7.645 3.444 18.613 3.444 26.258 0 4.153-1.867 9.048-.012 10.919 4.145a8.257 8.257 0 0 1-4.145 10.919c-5.944 2.67-12.823 4.081-19.903 4.081z" opacity="1" data-original="#ffffff"></path><circle cx="99.613" cy="228.645" r="8.258" fill="#64505a" opacity="1" data-original="#64505a"></circle><circle cx="149.161" cy="228.645" r="8.258" fill="#64505a" opacity="1" data-original="#64505a"></circle><path fill="#e3aa75" d="M132.14 313.294c-32.578-4.074-57.817-31.87-57.817-65.552v-57.807l-9.582 14.372a41.289 41.289 0 0 0-6.934 22.904v18.267c0 35.187 26.553 65.912 61.667 68.185 4.316.28 8.548.145 12.666-.369z" opacity="1" data-original="#e3aa75"></path><path fill="#ffe07d" d="M16.141 429.419H231.6c8.915 0 16.142-7.227 16.142-16.142v-.001c0-24.882-15.922-46.972-39.526-54.84l-17.989-5.996c-16.895 24.745-43.184 44.792-57.057 54.366a16.347 16.347 0 0 1-18.598 0c-13.874-9.575-40.167-29.623-57.059-54.365l-17.986 5.996C15.757 366.361-.222 388.706.003 413.8c.077 8.699 7.439 15.619 16.138 15.619z" opacity="1" data-original="#ffe07d" class=""></path></g></svg>