<svg xmlns="http://www.w3.org/2000/svg" version="1.1" xmlns:xlink="http://www.w3.org/1999/xlink" width="512" height="512" x="0" y="0" viewBox="0 0 512 512" style="enable-background:new 0 0 512 512" xml:space="preserve" class=""><g><path fill="#65ddb9" d="M247.172 97.102c-4.875 0-8.828-3.95-8.828-8.825V52.965a8.829 8.829 0 0 1 17.656 0v35.312c0 4.875-3.953 8.825-8.828 8.825zM128.574 146.23a8.85 8.85 0 0 1-6.242-2.59l-31.215-31.21c-3.344-3.465-3.297-8.973.11-12.375a8.828 8.828 0 0 1 12.375-.11l31.214 31.215a8.822 8.822 0 0 1 1.91 9.617 8.826 8.826 0 0 1-8.152 5.453zM79.45 264.828H44.136a8.829 8.829 0 0 1 0-17.656h35.312a8.829 8.829 0 0 1 0 17.656zM97.36 414.64a8.83 8.83 0 0 1-6.242-15.07l31.214-31.21a8.829 8.829 0 0 1 12.484 12.48l-31.214 31.215a8.829 8.829 0 0 1-6.243 2.586zM247.172 467.863a8.829 8.829 0 0 1-8.828-8.828v-35.312c0-4.875 3.953-8.825 8.828-8.825s8.828 3.95 8.828 8.825v35.312a8.829 8.829 0 0 1-8.828 8.828zM396.984 414.64c-2.34 0-4.586-.93-6.238-2.585l-31.215-31.215c-3.347-3.465-3.3-8.969.106-12.375s8.91-3.453 12.375-.106l31.215 31.211a8.839 8.839 0 0 1 1.914 9.621 8.832 8.832 0 0 1-8.157 5.45zM459.035 264.828h-44.137c-4.878 0-8.828-3.953-8.828-8.828s3.95-8.828 8.828-8.828h44.137a8.829 8.829 0 0 1 0 17.656zM365.77 146.23a8.834 8.834 0 0 1-8.153-5.453 8.824 8.824 0 0 1 1.914-9.617l31.215-31.215a8.824 8.824 0 0 1 8.582-2.406 8.832 8.832 0 0 1 6.305 6.305 8.833 8.833 0 0 1-2.406 8.586l-31.215 31.21a8.842 8.842 0 0 1-6.242 2.59zm0 0" opacity="1" data-original="#65ddb9"></path><path fill="#46b29d" d="M414.898 256c0 92.633-75.093 167.723-167.726 167.723S79.449 348.633 79.449 256 154.54 88.277 247.172 88.277 414.898 163.367 414.898 256zm0 0" opacity="1" data-original="#46b29d"></path><path fill="#65ddb9" d="M247.172 397.242a8.829 8.829 0 0 1 0-17.656c68.226-.074 123.516-55.363 123.586-123.586a8.829 8.829 0 0 1 17.656 0c-.094 77.969-63.273 141.148-141.242 141.242zm0 0" opacity="1" data-original="#65ddb9"></path><g fill="#14a085"><path d="M317.793 194.207c0 19.5-15.809 35.309-35.309 35.309-19.504 0-35.312-15.809-35.312-35.309s15.808-35.309 35.312-35.309c19.5 0 35.309 15.809 35.309 35.309zM194.207 220.691c0 14.625-11.855 26.48-26.484 26.48-14.625 0-26.48-11.855-26.48-26.48 0-14.629 11.855-26.484 26.48-26.484 14.629 0 26.484 11.856 26.484 26.484zM273.656 300.137c0 14.629-11.86 26.484-26.484 26.484s-26.48-11.855-26.48-26.484c0-14.625 11.855-26.48 26.48-26.48s26.484 11.855 26.484 26.48zM150.07 308.965a8.77 8.77 0 0 1-3.355-.707 10.175 10.175 0 0 1-2.914-1.852 9.092 9.092 0 0 1-1.852-2.914 8.77 8.77 0 0 1-.707-3.355 9.295 9.295 0 0 1 2.559-6.266 10.187 10.187 0 0 1 2.914-1.855 9.01 9.01 0 0 1 9.62 1.855 9.28 9.28 0 0 1 2.563 6.266 8.844 8.844 0 0 1-.707 3.355 9.103 9.103 0 0 1-1.855 2.914 9.295 9.295 0 0 1-6.266 2.559zM194.207 361.93a8.856 8.856 0 0 1-3.355-.703 10.272 10.272 0 0 1-2.915-1.856 9.092 9.092 0 0 1-1.851-2.914 8.829 8.829 0 0 1-.707-3.355 9.295 9.295 0 0 1 2.559-6.266 10.272 10.272 0 0 1 2.914-1.856 9.008 9.008 0 0 1 9.62 1.856 9.28 9.28 0 0 1 2.563 6.266 8.829 8.829 0 0 1-.707 3.355 9.037 9.037 0 0 1-1.855 2.914 9.258 9.258 0 0 1-6.266 2.559zM273.656 26.484c0 14.625-11.86 26.48-26.484 26.48s-26.48-11.855-26.48-26.48C220.691 11.855 232.546 0 247.171 0s26.484 11.855 26.484 26.484zM107.707 81.223c0 19.5-15.812 35.308-35.312 35.308s-35.31-15.808-35.31-35.308 15.81-35.309 35.31-35.309 35.312 15.809 35.312 35.309zM44.137 256c0 12.188-9.88 22.07-22.067 22.07C9.88 278.07 0 268.188 0 256s9.879-22.07 22.07-22.07c12.188 0 22.067 9.882 22.067 22.07zM107.707 430.777c0 19.5-15.812 35.309-35.312 35.309s-35.31-15.809-35.31-35.309 15.81-35.308 35.31-35.308 35.312 15.808 35.312 35.308zM273.656 485.516c0 14.629-11.86 26.484-26.484 26.484s-26.48-11.855-26.48-26.484c0-14.625 11.855-26.48 26.48-26.48s26.484 11.855 26.484 26.48zM457.262 430.777c0 19.5-15.813 35.309-35.313 35.309s-35.308-15.809-35.308-35.309 15.808-35.308 35.308-35.308 35.313 15.808 35.313 35.308zM512 256c0 14.625-11.855 26.484-26.484 26.484-14.625 0-26.48-11.859-26.48-26.484s11.855-26.484 26.48-26.484C500.145 229.516 512 241.375 512 256zM457.262 81.223c0 19.5-15.813 35.308-35.313 35.308s-35.308-15.808-35.308-35.308 15.808-35.309 35.308-35.309 35.313 15.809 35.313 35.309zm0 0" fill="#14a085" opacity="1" data-original="#14a085"></path></g></g></svg>