<svg xmlns="http://www.w3.org/2000/svg" version="1.1" xmlns:xlink="http://www.w3.org/1999/xlink" width="512" height="512" x="0" y="0" viewBox="0 0 512 512" style="enable-background:new 0 0 512 512" xml:space="preserve" class=""><g><path d="M88.276 26.483h17.655v97.103H88.276zM158.897 26.483h17.655v97.103h-17.655z" style="" fill="#75462e" data-original="#75462e" class=""></path><path d="M88.276 26.483h17.655v26.483H88.276zM158.897 26.483h17.655v26.483h-17.655z" style="" fill="#5e3825" data-original="#5e3825" class=""></path><path d="M79.448 0h105.931c9.754 0 17.655 7.901 17.655 17.655 0 9.754-7.901 17.655-17.655 17.655H79.448c-9.754 0-17.655-7.901-17.655-17.655C61.793 7.901 69.694 0 79.448 0zM35.31 114.759h194.207c19.5 0 35.31 15.81 35.31 35.31v282.483c0 19.5-15.81 35.31-35.31 35.31H35.31c-19.5 0-35.31-15.81-35.31-35.31V150.069c0-19.5 15.81-35.31 35.31-35.31z" style="" fill="#4398d1" data-original="#4398d1" class=""></path><path d="M238.592 116.083C200.978 312.09 73.34 397.409 0 430.936v1.615c0 19.5 15.81 35.31 35.31 35.31h194.207c19.5 0 35.31-15.81 35.31-35.31V150.069c-.026-15.969-10.796-29.917-26.235-33.986z" style="" fill="#3e8cc7" data-original="#3e8cc7"></path><circle cx="30.897" cy="489.931" r="22.069" style="" fill="#3e8cc7" data-original="#3e8cc7"></circle><path d="M97.103 158.897h17.655v256H97.103zM44.138 158.897h17.655v256H44.138zM150.069 158.897h17.655v256h-17.655zM203.034 158.897h17.655v256h-17.655z" style="" fill="#126099" data-original="#126099"></path><circle cx="233.931" cy="489.931" r="22.069" style="" fill="#3e8cc7" data-original="#3e8cc7"></circle><path d="M512 256v176.552c0 19.5-15.81 35.31-35.31 35.31H167.724c-19.5 0-35.31-15.81-35.31-35.31V256c0-19.5 15.81-35.31 35.31-35.31H476.69c19.5 0 35.31 15.81 35.31 35.31z" style="" fill="#de4c3c" data-original="#de4c3c"></path><path d="M397.241 220.69v-35.31c0-19.5-15.81-35.31-35.31-35.31h-79.448c-19.5 0-35.31 15.81-35.31 35.31v35.31h35.31v-35.31h79.448v35.31h35.31z" style="" fill="#75462e" data-original="#75462e" class=""></path><circle cx="163.31" cy="489.931" r="22.069" style="" fill="#de4c3c" data-original="#de4c3c"></circle><circle cx="481.103" cy="489.931" r="22.069" style="" fill="#de4c3c" data-original="#de4c3c"></circle><path d="M79.448 238.345 0 273.655V220.69l61.793-26.483z" style="" fill="#87ced9" data-original="#87ced9"></path><path d="M497.655 227.752c-63.691 126.764-241.761 206.777-330.814 240.022.3 0 .583.088.883.088H476.69c19.5 0 35.31-15.81 35.31-35.31V256a35.146 35.146 0 0 0-14.345-28.248z" style="" fill="#cf4737" data-original="#cf4737"></path><path d="M264.828 317.793 308.966 256l44.137 61.793z" style="" fill="#3e8cc7" data-original="#3e8cc7"></path><path d="M176.552 220.69h35.31v247.172h-35.31zM432.552 220.69h35.31v247.172h-35.31z" style="" fill="#75462e" data-original="#75462e" class=""></path><ellipse cx="433.08" cy="380.716" rx="44.121" ry="35.293" style="" transform="rotate(-161.879 433.076 380.711)" fill="#87ced9" data-original="#87ced9"></ellipse><path d="M132.414 300.138v44.138l88.276 52.965 17.655-35.31z" style="" fill="#fdb62f" data-original="#fdb62f"></path><path d="M461.471 356.484a180.506 180.506 0 0 1-59.145 45.594 52.206 52.206 0 0 0 20.012 12.023c23.172 7.583 46.866-1.289 52.966-19.827a35.53 35.53 0 0 0-13.833-37.79z" style="" fill="#71c4d1" data-original="#71c4d1"></path></g></svg>