<svg xmlns="http://www.w3.org/2000/svg" version="1.1" xmlns:xlink="http://www.w3.org/1999/xlink" width="512" height="512" x="0" y="0" viewBox="0 0 58 52" style="enable-background:new 0 0 512 512" xml:space="preserve" class=""><g><g fill="none" fill-rule="nonzero"><path fill="#f3d55b" d="M57.41.59C57.04.21 56.53-.003 56 0H2C1.47-.003.96.21.59.59.21.96-.003 1.47 0 2v42c-.003.53.21 1.04.59 1.41.37.38.88.593 1.41.59h53a3 3 0 0 0 3-3V2c.003-.53-.21-1.04-.59-1.41z" opacity="1" data-original="#f3d55b" class=""></path><path fill="#f0c419" d="M58 2v41c0 .796-.317 1.558-.88 2.12L53 41V5L57.41.59c.38.37.593.88.59 1.41zM5 5v36L.59 45.41C.21 45.04-.003 44.53 0 44V2C-.003 1.47.21.96.59.59z" opacity="1" data-original="#f0c419" class=""></path><path fill="#f29c1f" d="M57.12 45.12A2.993 2.993 0 0 1 55 46H2c-.53.003-1.04-.21-1.41-.59L5 41h48z" opacity="1" data-original="#f29c1f" class=""></path><path fill="#ecf0f1" d="M5 5h48v36H5z" opacity="1" data-original="#ecf0f1" class=""></path><path fill="#ffffff" d="M53 5S5 5 5 41V5z" opacity="1" data-original="#ffffff" class=""></path><path fill="#bdc3c7" d="M36 12H22a1 1 0 0 1 0-2h14a1 1 0 0 1 0 2z" opacity="1" data-original="#bdc3c7" class=""></path><path fill="#95a5a5" d="M26 34H12a1 1 0 0 1 0-2h14a1 1 0 0 1 0 2z" opacity="1" data-original="#95a5a5"></path><path fill="#bdc3c7" d="M39 17H19a1 1 0 0 1 0-2h20a1 1 0 0 1 0 2z" opacity="1" data-original="#bdc3c7" class=""></path><path fill="#ff5364" d="M35 37.4v12.98a1 1 0 0 0 1.45.9l2.6-1.31c.284-.14.616-.14.9 0l2.6 1.31a1 1 0 0 0 1.45-.9V37.4z" opacity="1" data-original="#ff5364"></path><path fill="#95a5a5" d="M26 30c-2.449 0-4.856-.632-6.989-1.834A14.066 14.066 0 0 1 12 30a1 1 0 0 1 0-2 12.121 12.121 0 0 0 5.188-1.141 4.749 4.749 0 0 1-1.835-3.285c0-.6.263-2.574 3.647-2.574s3.647 1.97 3.647 2.574a4.759 4.759 0 0 1-1.834 3.291A12.16 12.16 0 0 0 26 28a1 1 0 0 1 0 2zm-7-7c-.76 0-1.647.15-1.647.574s.449 1.278 1.639 2.194c1.064-.814 1.655-1.665 1.655-2.194 0-.424-.887-.574-1.647-.574z" opacity="1" data-original="#95a5a5"></path><path fill="#fb7b76" d="M49 30.5c0 1.153-2.153 1.868-2.569 2.871-.431 1.039.569 3.064-.214 3.847s-2.808-.217-3.846.213C41.368 37.847 40.653 40 39.5 40s-1.868-2.153-2.871-2.569c-1.039-.431-3.064.569-3.847-.214s.217-2.808-.213-3.846C32.153 32.368 30 31.653 30 30.5s2.153-1.868 2.569-2.871c.431-1.039-.569-3.064.214-3.847s2.808.217 3.846-.213c1-.416 1.718-2.569 2.871-2.569s1.868 2.153 2.871 2.569c1.039.431 3.064-.569 3.847.214s-.217 2.808.213 3.846C46.847 28.632 49 29.347 49 30.5z" opacity="1" data-original="#fb7b76" class=""></path><circle cx="39.5" cy="30.5" r="3.5" fill="#df4d60" opacity="1" data-original="#df4d60" class=""></circle></g></g></svg>