<svg xmlns="http://www.w3.org/2000/svg" version="1.1" xmlns:xlink="http://www.w3.org/1999/xlink" width="512" height="512" x="0" y="0" viewBox="0 0 512 512" style="enable-background:new 0 0 512 512" xml:space="preserve" class=""><g><path d="m164.457 156.125-40.42-23.948 47.079-25.17 64.678 3.863-3.908 33.248z" style="" fill="#008ac1" data-original="#008ac1"></path><path d="M502.501 76.779c-28.8 27.024-60.55 50.746-94.771 70.479-16.763 9.68-36.776 20.253-61.401 31.532L233.34 222.597c-28.696 9.565-61.017 19.38-97.555 29.351l-43.953 9.69a37.271 37.271 0 0 1-30.794-13.689L0 172.973l16.264-8.693c10.656-5.691 23.597-4.944 33.505 1.942l16.358 11.362c18.653 12.962 43.257 13.481 62.44 1.309l261.735-166.06a64.706 64.706 0 0 1 60.861-4.518l11.798 5.234 18.051 8.008 13.107 5.816c6.481 2.867 11.3 7.613 14.301 13.211 6.087 11.404 4.602 26.318-5.919 36.195z" style="" fill="#e3e8ec" data-original="#e3e8ec" class=""></path><path d="M508.416 40.585c6.093 11.397 4.604 26.319-5.912 36.196-28.804 27.023-60.551 50.741-94.772 70.479-16.768 9.68-36.773 20.248-61.405 31.525L233.343 222.6c-28.695 9.564-61.017 19.373-97.562 29.353l-43.945 9.681a37.256 37.256 0 0 1-30.795-13.689C221.855 228.072 521.058 63.887 494.12 27.369c6.485 2.875 11.305 7.62 14.296 13.216z" style="" fill="#d5d8db" data-original="#d5d8db"></path><path d="m481.013 21.557-36.226 19.37a7.734 7.734 0 0 1-3.666.914 7.783 7.783 0 0 1-6.875-4.113c-2.025-3.791-.592-8.516 3.199-10.542l25.518-13.637 18.05 8.008zM234.097 208.634l132.002-63.655-91.265 156.024-47.077 25.169zM93.559 250.936l56.586-26.794-38.235 74.057-28.389 15.178zM169.228 206.155c-6.972 0-10.401-8.882-5.23-13.555 2.573-2.324 6.462-2.654 9.392-.807 2.693 1.698 4.1 4.973 3.472 8.099-.723 3.598-3.956 6.263-7.634 6.263zM185.492 189.672c-2.607-4.878.774-11.038 6.298-11.439 5.533-.402 9.78 5.196 7.898 10.416-1.098 3.046-4.076 5.146-7.321 5.146a7.849 7.849 0 0 1-6.875-4.123zm23.14-12.368c-2.619-4.877.768-11.038 6.292-11.439 5.529-.402 9.78 5.199 7.9 10.416-1.098 3.045-4.071 5.146-7.316 5.146a7.855 7.855 0 0 1-6.876-4.123zm23.129-12.37c-2.605-4.876.776-11.038 6.298-11.439 5.533-.402 9.78 5.196 7.898 10.416-1.098 3.046-4.076 5.146-7.321 5.146a7.852 7.852 0 0 1-6.875-4.123zm23.14-12.359c-2.613-4.88.763-11.047 6.296-11.449 5.528-.402 9.774 5.203 7.895 10.416-1.098 3.044-4.071 5.146-7.316 5.146-2.847-.001-5.53-1.603-6.875-4.113zm23.13-12.38c-2.607-4.878.778-11.027 6.298-11.435 5.535-.41 9.781 5.197 7.898 10.416-1.099 3.046-4.078 5.143-7.321 5.143-2.849-.002-5.535-1.611-6.875-4.124zm23.139-12.359c-2.613-4.88.763-11.047 6.296-11.45 5.528-.402 9.776 5.206 7.895 10.42-1.099 3.044-4.072 5.143-7.316 5.143a7.862 7.862 0 0 1-6.875-4.113zm23.13-12.37c-2.601-4.882.77-11.036 6.298-11.445 5.535-.41 9.781 5.197 7.898 10.416-1.099 3.046-4.078 5.143-7.321 5.143-2.844-.002-5.531-1.606-6.875-4.114zm23.14-12.37c-2.615-4.883.766-11.036 6.296-11.445 5.538-.41 9.78 5.199 7.896 10.417-1.102 3.052-4.065 5.141-7.317 5.141-2.848-.001-5.53-1.602-6.875-4.113zm23.129-12.37c-2.602-4.881.77-11.037 6.298-11.445 5.53-.408 9.781 5.202 7.898 10.416-1.1 3.046-4.077 5.142-7.321 5.142-2.844.001-5.532-1.605-6.875-4.113zM400.574 82.47c-6.995 0-10.421-8.969-5.168-13.609 5.284-4.666 13.72-.196 12.897 6.774-.456 3.859-3.853 6.835-7.729 6.835z" style="" fill="#008ac1" data-original="#008ac1"></path><path d="M3.091 397.987H512V509.23H3.091z" style="" fill="#7eb129" data-original="#7eb129"></path><path d="M3.091 424.211H512v58.795H3.091z" style="" fill="#c3c3cd" data-original="#c3c3cd"></path></g></svg>