<svg xmlns="http://www.w3.org/2000/svg" version="1.1" xmlns:xlink="http://www.w3.org/1999/xlink" width="512" height="512" x="0" y="0" viewBox="0 0 512 512" style="enable-background:new 0 0 512 512" xml:space="preserve" class=""><g><circle cx="256.001" cy="267" r="245" fill="#ffca45" opacity="1" data-original="#ffca45"></circle><path fill="#eaf2ff" d="M464.981 394.93c-80.846 131.827-268.977 155.658-379.91 47.59C56.912 331.266 28.754 220.013.591 108.76c-2.85-11.28 4.86-22.95 17.22-26.08 107.862-27.304 215.727-54.6 323.59-81.9 12.37-3.13 24.7 3.47 27.56 14.75 32.001 126.468 64.013 252.933 96.02 379.4z" opacity="1" data-original="#eaf2ff" class=""></path><path fill="#76beff" d="M314.371 95.972 86.878 153.55a7.5 7.5 0 0 1-3.68-14.542L310.691 81.43a7.5 7.5 0 0 1 3.68 14.542zM328.357 151.23l-227.493 57.578a7.5 7.5 0 0 1-3.68-14.542l227.493-57.578a7.5 7.5 0 0 1 3.68 14.542zM343.017 209.154l-227.493 57.578a7.5 7.5 0 0 1-3.68-14.542l227.493-57.578a7.5 7.5 0 1 1 3.68 14.542zM355.223 257.383 127.73 314.961a7.5 7.5 0 0 1-3.68-14.542l227.493-57.578a7.5 7.5 0 0 1 3.68 14.542z" opacity="1" data-original="#76beff" class=""></path><path fill="#36b990" d="M243.117 402.32c9.267 36.615-12.983 73.946-49.599 83.213-36.615 9.267-73.946-12.983-83.213-49.599s12.984-73.946 49.599-83.213 73.946 12.983 83.213 49.599z" opacity="1" data-original="#36b990"></path><path fill="#ffffff" d="M172.573 455.762a7.477 7.477 0 0 1-5.68-.828l-34.014-20.274a7.501 7.501 0 0 1-2.603-10.283 7.501 7.501 0 0 1 10.282-2.602l27.572 16.435 35.26-59.157a7.501 7.501 0 0 1 12.885 7.681l-39.1 65.599a7.48 7.48 0 0 1-4.602 3.429z" opacity="1" data-original="#ffffff"></path><path fill="#76beff" d="m374.975 335.422-103.729 26.254a7.5 7.5 0 1 1-3.68-14.542l103.729-26.254a7.5 7.5 0 0 1 3.68 14.542zM386.589 381.309 282.86 407.562a7.5 7.5 0 0 1-3.68-14.542l103.729-26.254a7.5 7.5 0 1 1 3.68 14.543z" opacity="1" data-original="#76beff" class=""></path><path fill="#a54b0e" d="M497.652 83.458A48.817 48.817 0 0 1 472.5 96.886c-16.758 3.281-32.315 10.819-45.651 21.369l-33.34-33.34a109.346 109.346 0 0 0 4.193-5.706c8.358-12.063 14.361-25.661 17.275-40.143a48.76 48.76 0 0 1 13.583-25.109c19.361-19.134 51.555-18.505 70.18 1.336a49.187 49.187 0 0 1 7.884 11.179c9.441 18.421 6.45 41.564-8.972 56.986z" opacity="1" data-original="#a54b0e"></path><path fill="#bf6015" d="M492.879 68.786c-12.397 12.397-28.607 12.8-44.003 19.074-12.71 5.179-26.147 16.376-38.665 3.858l-12.509-12.509c8.355-12.06 14.378-25.743 17.275-40.143 2.942-14.577 12.654-27.353 25.989-33.96 23.705-11.744 53.525-2.231 65.659 21.366 2.354 14.956-2.228 30.795-13.746 42.314z" opacity="1" data-original="#bf6015"></path><path fill="#6d2929" d="m431.594 146.688-.071.071-66.468-66.468.071-.071a16.59 16.59 0 0 1 6.194-3.917 16.634 16.634 0 0 1 5.65-.983c4.285 0 8.57 1.626 11.844 4.9l42.78 42.78c4.73 4.73 6.046 11.589 3.924 17.501a16.728 16.728 0 0 1-3.924 6.187z" opacity="1" data-original="#6d2929"></path><path fill="#844242" d="M435.518 140.501 371.32 76.303a16.634 16.634 0 0 1 5.65-.983c4.285 0 8.57 1.626 11.844 4.9l42.78 42.78c4.73 4.73 6.045 11.589 3.924 17.501z" opacity="1" data-original="#844242"></path><path fill="#4d5961" d="m415.861 195.655-5.48 5.48a13.828 13.828 0 0 1-3.946 2.772c-5.183 2.44-11.561 1.52-15.853-2.772l-79.903-79.903c-4.292-4.292-5.211-10.67-2.772-15.853a13.842 13.842 0 0 1 2.772-3.946l5.48-5.48z" opacity="1" data-original="#4d5961" class=""></path><path fill="#454545" d="m415.861 195.655-5.48 5.48a13.828 13.828 0 0 1-3.946 2.772l-98.528-98.528a13.842 13.842 0 0 1 2.772-3.946l5.48-5.48z" opacity="1" data-original="#454545" class=""></path><path fill="#d88521" d="M435.978 207.358c-3.988 3.309-7.99 3.309-11.978 0L304.456 87.814c-4.25-4.25-3.055-8.514.212-12.162 4.2-4.667 11.823-8.316 15.818-9.581 14.008-4.448 29.72-.629 40.114 9.765l75.378 75.378a39.472 39.472 0 0 1 7.545 10.529c7.304 14.827 4.794 33.276-7.545 45.615z" opacity="1" data-original="#d88521" class=""></path><path fill="#fea832" d="M431.912 190.918c-3.988 3.309-7.99 3.309-11.978 0L304.668 75.652c4.2-4.667 11.823-8.316 15.818-9.581 14.008-4.448 29.72-.629 40.114 9.765l75.378 75.378a39.472 39.472 0 0 1 7.545 10.529c.29 10.528-3.578 21.142-11.611 29.175z" opacity="1" data-original="#fea832" class=""></path></g></svg>