<svg xmlns="http://www.w3.org/2000/svg" version="1.1" xmlns:xlink="http://www.w3.org/1999/xlink" width="512" height="512" x="0" y="0" viewBox="0 0 512 512" style="enable-background:new 0 0 512 512" xml:space="preserve" class=""><g><path fill="#ffc93c" d="M362.658 310.304c40.024 23.508 77.823 27.522 112.023 0 20.604 0 37.319-16.715 37.319-37.319v-26.21c0-20.604-16.715-37.319-37.319-37.319-48.722-31.386-102.544-30.674-161.126 0-1.929 33.269 6.625 69.961 49.103 100.848z" opacity="1" data-original="#ffc93c"></path><path fill="#ffe950" d="M352.201 411.152c41.613 16.6 82.5 17.878 122.48 0 20.604 0 37.319-16.715 37.319-37.319v-26.21c0-20.604-16.715-37.319-37.319-37.319H362.658c-10.023 32.966-13.979 67.946-10.457 100.848z" opacity="1" data-original="#ffe950"></path><path fill="#ffc93c" d="M326.439 411.152c4.133 11.731 11.678 14.475 25.762 0 12.671-32.851 15.753-67.836 10.457-100.848H338.52c-20.003 31.62-19.791 67.277-12.081 100.848z" opacity="1" data-original="#ffc93c"></path><path fill="#ffc93c" d="M263.767 512h210.914C495.285 512 512 495.285 512 474.681v-26.21c0-20.604-16.715-37.319-37.319-37.319h-122.48C305.582 443.581 281.18 481.669 263.767 512z" opacity="1" data-original="#ffc93c"></path><path fill="#ffaa4e" d="M352.201 411.152h-25.762C247.859 445.208 197.56 489.762 170.667 512h93.1c39.24-21.417 71.285-56.384 88.434-100.848zM338.52 310.304h24.138c-6.032-37.597-23.137-72.71-49.103-100.848-14.414-11.047-26.286-12.398-34.551 0 9.747 33.256 25.468 71.015 59.516 100.848z" opacity="1" data-original="#ffaa4e"></path><path fill="#ffe950" d="M512 172.137v-26.21c0-20.604-16.715-37.319-37.319-37.319h-251.18c-20.604 0-37.319 16.715-37.319 37.319v1.574c37.319 17.055 81.361 40.566 127.373 61.955h161.126c20.604 0 37.319-16.715 37.319-37.319z" opacity="1" data-original="#ffe950"></path><path fill="#ffc93c" d="M279.004 209.456h34.551c-33.159-35.932-78.389-58.117-127.373-61.955v23.86c23.662 24.295 57.028 35.586 92.822 38.095z" opacity="1" data-original="#ffc93c"></path><path fill="#ffe950" d="M341.333 341.334c0-104.138-92.167-183.555-194.908-168.944-112.292 87.49-77.124 284.79 78.962 330.644 68.141-23.049 115.946-87.31 115.946-161.7z" opacity="1" data-original="#ffe950"></path><path fill="#ffc93c" d="M146.425 172.39C63.649 184.161 0 255.306 0 341.334 0 435.593 76.407 512 170.667 512c19.141 0 37.543-3.156 54.721-8.966-115.854-68.189-151.303-217.556-78.963-330.644z" opacity="1" data-original="#ffc93c"></path><path fill="#ffc93c" d="M294.788 341.334c0-68.546-55.575-124.121-124.121-124.121-17.956 0-35.019 3.82-50.429 10.681-46.83 86.82-31.389 179.373 56.609 237.407 65.675-3.221 117.941-57.494 117.941-123.967z" opacity="1" data-original="#ffc93c"></path><path fill="#ffaa4e" d="M120.238 227.895c-43.417 19.331-73.692 62.85-73.692 113.44 0 70.705 59.096 127.46 130.302 123.967-61.422-62.047-83.643-153.537-56.61-237.407z" opacity="1" data-original="#ffaa4e"></path><path fill="#ffe950" d="M170.666 333.577c-12.853 0-23.273-10.418-23.273-23.273 0-12.832 10.44-23.273 23.273-23.273h31.03a7.758 7.758 0 0 0 0-15.516h-23.273V256a7.758 7.758 0 0 0-15.516 0v16.296c-17.683 3.604-31.03 19.275-31.03 38.007 0 21.429 17.357 38.788 38.788 38.788 12.853 0 23.273 10.417 23.273 23.273 0 12.853-10.418 23.273-23.273 23.273h-31.03a7.758 7.758 0 0 0 0 15.516h23.273v15.515a7.757 7.757 0 0 0 7.758 7.757 7.758 7.758 0 0 0 7.758-7.757v-16.29c17.53-3.543 31.03-19.077 31.03-38.013 0-10.356-4.036-20.096-11.364-27.424-7.328-7.329-17.068-11.364-27.424-11.364z" opacity="1" data-original="#ffe950"></path><path fill="#52768b" d="M402.577 49.206c8.988 9.981 1.903 25.889-11.533 25.889h-14.802v80.058c0 8.564-6.94 15.515-15.515 15.515h-23.273c-8.564 0-15.515-6.951-15.515-15.515V75.095h-14.801c-13.436 0-20.521-15.908-11.533-25.889L333.71 6.85c8.213-9.133 22.538-9.133 30.751 0z" opacity="1" data-original="#52768b"></path></g></svg>