<svg xmlns="http://www.w3.org/2000/svg" version="1.1" xmlns:xlink="http://www.w3.org/1999/xlink" width="512" height="512" x="0" y="0" viewBox="0 0 59 58" style="enable-background:new 0 0 512 512" xml:space="preserve" class=""><g><g fill="none" fill-rule="nonzero"><path fill="#2980ba" d="m54.87 23.35-.62 11.29C49 45.41 39.77 52 29 52 18.36 52 9.23 45.57 3.94 35.03l-.81-11.68A25.99 25.99 0 0 1 29 0a26.082 26.082 0 0 1 23.93 15.83 25.628 25.628 0 0 1 1.94 7.52z" opacity="1" data-original="#2980ba"></path><path fill="#3b97d3" d="M52.93 15.83c-.963 12.507-11.395 22.164-23.94 22.158-12.544-.005-22.968-9.67-23.92-22.178A25.99 25.99 0 0 1 29 0a26.082 26.082 0 0 1 23.93 15.83z" opacity="1" data-original="#3b97d3"></path><g fill="#65ddb9"><path d="M12.85 39.09c-.59-2.2-2.85-5.68-2.85-7.44 0-3 .93-4.23 4-5 4-1 4 1 7 2s6 2 6 4-3 4-4 7c-.65 1.95-1.3 3.92-2.25 4.72zM54.87 23.35l-.62 11.29a34.118 34.118 0 0 1-7.96 10.67C37.28 40.53 43.19 35.77 42 31c-1-4-9 0-10-5s3-7 4-8 1-4 6-6a43.575 43.575 0 0 0 6.42-3.27 25.809 25.809 0 0 1 6.45 14.62zM22 15c-5 1-6 2-7 5s-4 3-6 3c-1.88 0-2.87 5.3-5.48 5.94l-.39-5.59a26.034 26.034 0 0 1 11.31-18.9A7.378 7.378 0 0 0 19 6c4 0 9-3 10 1s-2 7-7 8z" fill="#65ddb9" opacity="1" data-original="#65ddb9"></path></g><path fill="#26b99a" d="M24.1 37.49a9.155 9.155 0 0 0-1.1 2.16c-.65 1.95-1.3 3.92-2.25 4.72l-7.9-5.28c-.59-2.2-2.85-5.68-2.85-7.44a6.664 6.664 0 0 1 .38-2.51 23.908 23.908 0 0 0 13.72 8.35zM54.87 23.35l-.62 11.29a34.118 34.118 0 0 1-7.96 10.67c-7.02-3.72-4.98-7.43-4.3-11.14a23.954 23.954 0 0 0 10.94-18.34 25.628 25.628 0 0 1 1.94 7.52zM7.35 24.35c-1.05 1.62-2.07 4.16-3.83 4.59l-.39-5.59c.26-2.597.915-5.14 1.94-7.54a23.8 23.8 0 0 0 2.28 8.54z" opacity="1" data-original="#26b99a"></path><path fill="#fdd7ad" d="M24 57.01a.994.994 0 0 1-1 .99h-9a1 1 0 0 1-1-1v-1.85a1.973 1.973 0 0 0-.7-1.52c-1.88-1.6-4.58-3.91-7.34-6.28-1.61-1.38-2.75-2.19-3.68-3.84A8.872 8.872 0 0 1 .14 39.1C.06 32.11.09 35.64 0 25.15a2.094 2.094 0 0 1 1.58-2.1A2.016 2.016 0 0 1 4 24.79c.66 6.06.82 7.52 1.02 9.42.07.66.15 1.36.25 2.33a2.358 2.358 0 0 1 3.08-.44c8.86 5.88 12.1 8.03 12.27 8.15a8.828 8.828 0 0 1 3.12 5.15c.26 2.528.347 5.07.26 7.61z" opacity="1" data-original="#fdd7ad"></path><path fill="#f9c795" d="M16.28 47.62a1 1 0 0 1-1.4.2L4.4 39.89a3.337 3.337 0 0 1 .62-5.68c.07.66.15 1.36.25 2.33a1.332 1.332 0 0 0 .34 1.75l10.48 7.93a1 1 0 0 1 .19 1.4z" opacity="1" data-original="#f9c795"></path><path fill="#fdd7ad" d="M58.01 25.15c-.09 10.49-.06 6.96-.14 13.95a8.872 8.872 0 0 1-1.14 4.41c-.93 1.65-2.07 2.46-3.68 3.84-2.76 2.37-5.46 4.68-7.34 6.28a1.973 1.973 0 0 0-.7 1.52V57a1 1 0 0 1-1 1H35a1 1 0 0 1-1-.99 55.4 55.4 0 0 1 .27-7.61 8.778 8.778 0 0 1 3.12-5.15c.17-.12 3.41-2.27 12.27-8.15a2.348 2.348 0 0 1 3.08.45c.1-.96.18-1.66.24-2.31.21-1.92.36-3.35 1.03-9.45a2 2 0 0 1 2.41-1.74 2.1 2.1 0 0 1 1.59 2.1z" opacity="1" data-original="#fdd7ad"></path><path fill="#f9c795" d="M54.33 35.34a5.861 5.861 0 0 0-1.35-1.1c-.06.65-.14 1.35-.24 2.31.39.582.258 1.367-.3 1.79l-10.48 7.94a.992.992 0 0 0-.19 1.4c.337.434.96.519 1.4.19l10.48-7.93a3.318 3.318 0 0 0 .68-4.6z" opacity="1" data-original="#f9c795"></path></g></g></svg>