<svg xmlns="http://www.w3.org/2000/svg" version="1.1" xmlns:xlink="http://www.w3.org/1999/xlink" width="512" height="512" x="0" y="0" viewBox="0 0 469.17 469.17" style="enable-background:new 0 0 512 512" xml:space="preserve"><g><path d="M434.859 50.791c17.071 4.574 27.202 22.121 22.627 39.192l-95.245 355.461c-4.574 17.071-22.121 27.202-39.192 22.627l-185.458-49.694c-17.071-4.574-27.202-22.121-22.627-39.192l95.245-355.46c4.574-17.071 22.121-27.202 39.192-22.627l185.458 49.693z" style="" fill="#f5f9ec" data-original="#f5f9ec"></path><path d="M291.327 97.948H190.319l-75.355 281.238c-4.574 17.07 5.558 34.617 22.629 39.191l185.457 49.691c17.07 4.574 34.617-5.554 39.191-22.625l58.45-218.133L291.327 97.948z" style="" fill="#e4e8db" data-original="#e4e8db"></path><path d="M434.859 50.791c17.071 4.574 27.202 22.121 22.627 39.192l-41.411 154.548L168.8 178.274l41.411-154.548c4.574-17.071 22.121-27.202 39.192-22.627l185.456 49.692z" style="" fill="#dcc69f" data-original="#dcc69f"></path><path d="M173.901 343.989h111.997v16H173.901z" style="" transform="scale(-1) rotate(-75.001 -458.729 299.615)" fill="#c8beb2" data-original="#c8beb2"></path><path d="M240.821 243.558h31.999v16h-31.999z" style="" transform="scale(-1) rotate(-75.001 -327.843 334.701)" fill="#c8beb2" data-original="#c8beb2"></path><path d="M287.217 255.938h31.999v16h-31.999z" style="" transform="scale(-1) rotate(-75.001 -343.976 395.167)" fill="#c8beb2" data-original="#c8beb2"></path><path d="M333.54 268.381h31.999v16H333.54z" style="" transform="scale(-1) rotate(-75.001 -360.193 455.537)" fill="#c8beb2" data-original="#c8beb2"></path><path d="M220.231 356.425h111.997v16H220.231z" style="" transform="scale(-1) rotate(-75.001 -474.936 359.995)" fill="#c8beb2" data-original="#c8beb2"></path><path d="M266.652 368.869h111.997v16H266.652z" style="" transform="scale(-1) rotate(-75.001 -491.154 420.493)" fill="#c8beb2" data-original="#c8beb2"></path><path d="m380.21 69.277-13.247-3.55-47.315 44.114-28.7-7.69c-8.831-2.366-18.846-.317-20.029 4.098-1.183 4.416 6.465 11.198 15.296 13.564l28.7 7.69 18.919 61.862 13.247 3.55-1.257-57.129 23.406 6.271 10.285 18.137 8.831 2.366-1.518-25.254 13.942-21.111-8.831-2.366-17.975 10.565-23.406-6.271 29.652-48.846z" style="" fill="#f5f9ec" data-original="#f5f9ec"></path><path d="m168.8 178.273 247.278 66.257 4.612-17.218L291.327 97.948H190.323z" style="" fill="#cdb994" data-original="#cdb994"></path><path d="M290.948 102.151c-8.832-2.367-18.848-.317-20.027 4.098-1.183 4.416 6.461 11.199 15.297 13.565 2.386.641 16.297 4.369 28.695 7.69l18.922 61.863 13.246 3.549-.879-40.094-48.996-48.994-6.258-1.677z" style="" fill="#e4e8db" data-original="#e4e8db"></path><path d="m264.858 5.239-111.81 417.28-15.455-4.141c-17.071-4.574-27.202-22.121-22.627-39.192l95.246-355.461c4.574-17.071 22.121-27.202 39.192-22.627l15.454 4.141z" style="" fill="#ea672c" data-original="#ea672c"></path><path d="M298.585 406.151c0 17.673-14.327 32-32 32h-240c-8.837 0-16-7.163-16-16v-320c0-8.837 7.163-16 16-16h240c17.673 0 32 14.327 32 32v288z" style="" fill="#125d9d" data-original="#125d9d"></path><path d="M154.585 134.151c-53.019 0-96 42.981-96 96s42.981 96 96 96 96-42.981 96-96-42.98-96-96-96zm71.047 60h-34.598c-3.309-16.58-8.477-29.981-13.754-40.32 21.141 6.309 38.497 20.969 48.352 40.32zm-47.047 36c0 7.142-.535 13.703-1.27 20h-45.457c-.738-6.297-1.274-12.859-1.274-20 0-7.145.527-13.705 1.258-20h45.488c.728 6.295 1.255 12.856 1.255 20zm-44.074-36c4.442-20.049 11.77-34.614 17.746-43.766.789-.023 1.531-.234 2.328-.234.805 0 1.55.215 2.351.238 6.004 9.211 13.305 23.782 17.726 43.762h-40.151zm-2.621-40.32c-5.258 10.317-10.43 23.733-13.742 40.32h-34.61a79.865 79.865 0 0 1 48.352-40.32zm-54.465 56.32h38.293c-.668 6.336-1.133 12.926-1.133 20 0 7.078.477 13.66 1.156 20H77.424c-1.672-6.43-2.84-13.054-2.84-20 .001-6.945 1.169-13.57 2.841-20zm6.113 56h34.649c3.344 16.617 8.519 30.133 13.68 40.313-21.129-6.313-38.477-20.969-48.329-40.313zm68.719 43.766c-5.734-8.82-13.203-23.424-17.726-43.766h40.11c-4.516 20.328-11.977 34.926-17.73 43.766-.789.023-1.527.234-2.324.234s-1.537-.21-2.33-.234zm25.055-3.453c5.168-10.19 10.34-23.695 13.676-40.313h34.645c-9.852 19.343-27.196 33.996-48.321 40.313zm54.434-56.313h-38.313c.676-6.34 1.152-12.922 1.152-20 0-7.074-.461-13.664-1.129-20h38.289c1.672 6.43 2.84 13.054 2.84 20s-1.168 13.571-2.839 20z" style="" fill="#e7be29" data-original="#e7be29"></path><g style="enable-background:new ;"><path d="M69.086 390.168v-22.906h8.641c1.521 0 2.682.073 3.484.219 1.125.188 2.067.545 2.828 1.07.76.526 1.372 1.264 1.836 2.211.463.948.695 1.99.695 3.125 0 1.948-.62 3.597-1.859 4.945-1.24 1.35-3.479 2.023-6.719 2.023h-5.875v9.313h-3.031zm3.031-12.016h5.922c1.958 0 3.349-.364 4.172-1.094.823-.729 1.234-1.755 1.234-3.078 0-.958-.242-1.778-.727-2.461a3.4 3.4 0 0 0-1.914-1.352c-.511-.135-1.453-.203-2.828-.203h-5.859v8.188zM85.539 390.168l8.797-22.906h3.266l9.375 22.906h-3.453l-2.672-6.938h-9.578l-2.516 6.938h-3.219zm6.609-9.407h7.766l-2.391-6.344c-.729-1.927-1.271-3.51-1.625-4.75a29.229 29.229 0 0 1-1.234 4.375l-2.516 6.719zM108.367 382.808l2.859-.25c.135 1.146.45 2.086.945 2.82.495.734 1.263 1.328 2.305 1.781 1.042.453 2.213.68 3.516.68 1.156 0 2.177-.172 3.063-.516.885-.344 1.544-.814 1.977-1.414a3.28 3.28 0 0 0 .648-1.961c0-.719-.208-1.346-.625-1.883-.417-.536-1.104-.986-2.063-1.352-.615-.239-1.974-.611-4.078-1.117-2.104-.505-3.578-.981-4.422-1.43-1.094-.572-1.909-1.283-2.445-2.133-.537-.849-.805-1.799-.805-2.852 0-1.156.328-2.236.984-3.242.656-1.005 1.614-1.768 2.875-2.289 1.26-.521 2.661-.781 4.203-.781 1.698 0 3.195.273 4.492.82s2.294 1.352 2.992 2.414c.698 1.063 1.073 2.266 1.125 3.609l-2.906.219c-.156-1.447-.685-2.541-1.586-3.281-.901-.739-2.232-1.109-3.992-1.109-1.833 0-3.169.336-4.008 1.008-.839.672-1.258 1.482-1.258 2.43 0 .823.297 1.5.891 2.031.583.531 2.106 1.076 4.57 1.633 2.463.558 4.153 1.045 5.07 1.461 1.333.615 2.317 1.394 2.953 2.336.635.943.953 2.029.953 3.258 0 1.219-.349 2.367-1.047 3.445-.698 1.078-1.701 1.917-3.008 2.516-1.308.599-2.779.898-4.414.898-2.073 0-3.81-.303-5.211-.906-1.401-.604-2.5-1.513-3.297-2.727-.795-1.212-1.214-2.585-1.256-4.116zM129.711 382.808l2.859-.25c.135 1.146.45 2.086.945 2.82.495.734 1.263 1.328 2.305 1.781 1.042.453 2.213.68 3.516.68 1.156 0 2.177-.172 3.063-.516.885-.344 1.544-.814 1.977-1.414a3.28 3.28 0 0 0 .648-1.961c0-.719-.208-1.346-.625-1.883-.417-.536-1.104-.986-2.063-1.352-.615-.239-1.974-.611-4.078-1.117-2.104-.505-3.578-.981-4.422-1.43-1.094-.572-1.909-1.283-2.445-2.133-.537-.849-.805-1.799-.805-2.852 0-1.156.328-2.236.984-3.242.656-1.005 1.614-1.768 2.875-2.289 1.26-.521 2.661-.781 4.203-.781 1.698 0 3.195.273 4.492.82s2.294 1.352 2.992 2.414c.698 1.063 1.073 2.266 1.125 3.609l-2.906.219c-.156-1.447-.685-2.541-1.586-3.281-.901-.739-2.232-1.109-3.992-1.109-1.833 0-3.169.336-4.008 1.008-.839.672-1.258 1.482-1.258 2.43 0 .823.297 1.5.891 2.031.583.531 2.106 1.076 4.57 1.633 2.463.558 4.153 1.045 5.07 1.461 1.333.615 2.317 1.394 2.953 2.336.635.943.953 2.029.953 3.258 0 1.219-.349 2.367-1.047 3.445-.698 1.078-1.701 1.917-3.008 2.516-1.308.599-2.779.898-4.414.898-2.073 0-3.81-.303-5.211-.906-1.401-.604-2.5-1.513-3.297-2.727-.795-1.212-1.215-2.585-1.256-4.116zM152.086 390.168v-22.906h8.641c1.521 0 2.682.073 3.484.219 1.125.188 2.067.545 2.828 1.07.76.526 1.372 1.264 1.836 2.211.463.948.695 1.99.695 3.125 0 1.948-.62 3.597-1.859 4.945-1.24 1.35-3.479 2.023-6.719 2.023h-5.875v9.313h-3.031zm3.031-12.016h5.922c1.958 0 3.349-.364 4.172-1.094.823-.729 1.234-1.755 1.234-3.078 0-.958-.242-1.778-.727-2.461a3.4 3.4 0 0 0-1.914-1.352c-.511-.135-1.453-.203-2.828-.203h-5.859v8.188zM172.508 379.011c0-3.802 1.021-6.778 3.063-8.93 2.042-2.15 4.677-3.227 7.906-3.227 2.114 0 4.021.506 5.719 1.516 1.698 1.011 2.992 2.42 3.883 4.227.891 1.808 1.336 3.857 1.336 6.148 0 2.323-.469 4.401-1.406 6.234-.938 1.834-2.266 3.222-3.984 4.164a11.382 11.382 0 0 1-5.563 1.414c-2.156 0-4.083-.521-5.781-1.563a10.045 10.045 0 0 1-3.859-4.266 12.886 12.886 0 0 1-1.314-5.717zm3.125.047c0 2.761.742 4.936 2.227 6.523 1.484 1.589 3.346 2.383 5.586 2.383 2.281 0 4.159-.802 5.633-2.406 1.474-1.604 2.211-3.88 2.211-6.828 0-1.864-.315-3.492-.945-4.883-.63-1.391-1.552-2.469-2.766-3.234-1.214-.766-2.576-1.148-4.086-1.148-2.146 0-3.992.737-5.539 2.211-1.548 1.474-2.321 3.935-2.321 7.382zM198.367 390.168v-22.906h10.156c2.042 0 3.594.206 4.656.617 1.063.412 1.911 1.139 2.547 2.18a6.508 6.508 0 0 1 .953 3.453c0 1.625-.526 2.995-1.578 4.109-1.052 1.115-2.677 1.823-4.875 2.125.802.386 1.411.766 1.828 1.141.885.813 1.724 1.828 2.516 3.047l3.984 6.234h-3.813l-3.031-4.766c-.886-1.375-1.615-2.427-2.188-3.156-.573-.729-1.086-1.239-1.539-1.531a4.572 4.572 0 0 0-1.383-.609c-.344-.072-.906-.109-1.688-.109h-3.516v10.172h-3.029zm3.031-12.797h6.516c1.385 0 2.469-.143 3.25-.43.781-.286 1.375-.744 1.781-1.375.406-.63.609-1.314.609-2.055 0-1.083-.394-1.974-1.18-2.672-.787-.697-2.029-1.047-3.727-1.047h-7.25v7.579zM226.68 390.168v-20.203h-7.547v-2.703h18.156v2.703h-7.578v20.203h-3.031z" style="" fill="#ffffff" data-original="#ffffff"></path></g></g></svg>