<svg xmlns="http://www.w3.org/2000/svg" version="1.1" xmlns:xlink="http://www.w3.org/1999/xlink" width="512" height="512" x="0" y="0" viewBox="0 0 64 64" style="enable-background:new 0 0 512 512" xml:space="preserve" class="hovered-paths"><g><circle cx="26.26" cy="37.74" r="26.26" fill="#ed1d31" opacity="1" data-original="#ed1d31" class="hovered-path"></circle><path d="M52.51 37.74a26.26 26.26 0 1 1-52.51 0v-1a26.25 26.25 0 0 0 52.47 0c.03.33.04.66.04 1z" opacity="1" fill="#00000015" data-original="#00000015"></path><path fill="#fff" d="M3.66 37.88a.76.76 0 0 1-.75-.75 22.77 22.77 0 0 1 22.75-22.75.75.75 0 0 1 0 1.5A21.28 21.28 0 0 0 4.41 37.13a.75.75 0 0 1-.75.75zm45.12-.81a.74.74 0 0 1 .75.75 22.77 22.77 0 0 1-22.75 22.75.75.75 0 1 1 0-1.5A21.28 21.28 0 0 0 48 37.82a.75.75 0 0 1 .78-.75z" opacity=".3"></path><circle cx="26.26" cy="37.74" r="19.69" fill="#f1f2f2"></circle><circle cx="26.26" cy="37.74" r="13.13" fill="#ed1d31"></circle><path fill="#fff" d="M15.5 39.07a.4.4 0 0 1-.4-.4 12.16 12.16 0 0 1 12.14-12.14.4.4 0 1 1 0 .8A11.36 11.36 0 0 0 15.9 38.67a.4.4 0 0 1-.4.4z" opacity=".2"></path><path d="M39.38 37.74a13.13 13.13 0 1 1-26.25 0v-1a13.12 13.12 0 0 0 26.17 0c.07.33.08.66.08 1z" opacity=".15"></path><circle cx="26.26" cy="37.74" r="6.56" fill="#f1f2f2"></circle><path fill="#5190c4" d="M52.87 14.94a26.29 26.29 0 0 0 4.39-1.28c3.61-1.44 6.32-3.55 6.7-5.46s-1.71-3.06-5-3.13c-.08-3.32-1.25-5.4-3.15-5s-4 3.09-5.45 6.7a26.29 26.29 0 0 0-1.28 4.39 21.94 21.94 0 0 0-.39 2.84c-10.26 2.36-19.5 12-21 22.39 10.36-1.55 20-10.79 22.38-21a21.86 21.86 0 0 0 2.8-.45z"></path><path d="M64 8.2a5.91 5.91 0 0 1-2.53 3.2 3.33 3.33 0 0 0 .53-1.2c.37-1.89-1.71-3.06-5-3.13-.08-3.32-1.25-5.4-3.15-5a3 3 0 0 0-1.19.53A5.85 5.85 0 0 1 55.79 0c1.9-.37 3.07 1.71 3.15 5 3.31.14 5.39 1.31 5.06 3.2z" opacity=".15"></path><path fill="#414042" d="m35.21 33.83-5-5a24.62 24.62 0 0 0-2.31 6.48l-2 2a.62.62 0 0 0 0 .87.63.63 0 0 0 .88 0l2-2a24.62 24.62 0 0 0 6.43-2.35z"></path></g></svg>