<svg xmlns="http://www.w3.org/2000/svg" version="1.1" xmlns:xlink="http://www.w3.org/1999/xlink" width="512" height="512" x="0" y="0" viewBox="0 0 512 512" style="enable-background:new 0 0 512 512" xml:space="preserve" class=""><g><path fill="#e8edf1" d="m512 333.52-20.62 45.49L512 430.28v36.93c0 5.68-4.62 10.3-10.3 10.3H312.96l-46.69-262.47 46.69-180.55H501.7c5.68 0 10.3 4.62 10.3 10.3z" opacity="1" data-original="#e8edf1" class=""></path><path fill="#5169cd" d="M423.787 243.432a7.726 7.726 0 0 1-2.511-15.035l29.378-10.095-29.378-10.095a7.726 7.726 0 1 1 5.022-14.614l50.644 17.401a7.726 7.726 0 0 1 0 14.614l-50.644 17.401a7.689 7.689 0 0 1-2.511.423z" opacity="1" data-original="#5169cd" class=""></path><path fill="#c5d3dd" d="m512 333.52-20.62 45.49L512 430.28v36.93c0 5.68-4.62 10.3-10.3 10.3h-41.24c5.69 0 10.3-4.62 10.3-10.3V44.79c0-5.68-4.61-10.3-10.3-10.3h41.24c5.68 0 10.3 4.62 10.3 10.3z" opacity="1" data-original="#c5d3dd" class=""></path><path fill="#27d1b3" d="M512 333.525v96.755h-41.484a10.302 10.302 0 0 1-7.283-3.016l-26.004-25.996a10.303 10.303 0 0 0-7.283-3.016h-20.17c-5.69 0-10.302 4.612-10.302 10.302v11.412c0 2.732-1.085 5.353-3.017 7.284l-11.386 11.386a10.3 10.3 0 0 1-7.284 3.017h-58.265c-5.69 0-10.302-4.612-10.302-10.302V180.059c0-5.69 4.612-10.302 10.302-10.302h29.941c4.433 0 8.369 2.836 9.772 7.042l13.095 39.253c.585 1.754.688 3.634.296 5.441l-7.98 36.839a10.294 10.294 0 0 0 .01 4.406l7.366 33.294a10.304 10.304 0 0 0 6.405 7.407l1.495.567a10.302 10.302 0 0 0 9.55-1.184l35.417-24.721a10.3 10.3 0 0 1 5.896-1.854h10.838c5.69 0 10.302 4.612 10.302 10.302v18.097c0 2.733 1.086 5.354 3.019 7.286l18.586 18.578a10.302 10.302 0 0 0 7.283 3.016H512z" opacity="1" data-original="#27d1b3"></path><path fill="#20b69f" d="m473.529 330.509-2.767-2.766V430.28H512v-96.755h-31.188a10.303 10.303 0 0 1-7.283-3.016z" opacity="1" data-original="#20b69f"></path><path fill="#5169cd" d="M312.96 477.509H10.302C4.612 477.509 0 472.897 0 467.207V44.793c0-5.69 4.612-10.302 10.302-10.302H312.96c5.69 0 10.302 4.612 10.302 10.302v422.414c0 5.69-4.613 10.302-10.302 10.302z" opacity="1" data-original="#5169cd" class=""></path><path fill="#3351c5" d="M323.261 44.792v422.415c0 5.687-4.615 10.302-10.302 10.302h-30.926V34.49h30.926c5.686 0 10.302 4.616 10.302 10.302z" opacity="1" data-original="#3351c5" class=""></path><path fill="#fb3a82" d="M427.251 298.624c0 18.751-19.048 42.467-28.992 53.57-3.143 3.51-8.635 3.51-11.778 0-9.944-11.103-28.992-34.819-28.992-53.57 0-19.265 15.617-34.882 34.882-34.882s34.88 15.617 34.88 34.882z" opacity="1" data-original="#fb3a82"></path><path fill="#e01058" d="M427.247 298.62c0 18.76-19.048 42.474-28.989 53.569-3.142 3.513-8.633 3.513-11.775 0a202.113 202.113 0 0 1-9.086-10.879c10.261-12.29 24.364-32.09 24.364-48.223 0-11.991-6.057-22.582-15.278-28.855a34.57 34.57 0 0 1 5.882-.494c19.265 0 34.882 15.617 34.882 34.882z" opacity="1" data-original="#e01058"></path><path fill="#27d1b3" d="M255.968 354.826H62.239c-5.69 0-10.302-4.612-10.302-10.302v-27.77c0-5.69 4.612-10.302 10.302-10.302h193.729c5.69 0 10.302 4.612 10.302 10.302v27.77c0 5.69-4.612 10.302-10.302 10.302z" opacity="1" data-original="#27d1b3"></path><path fill="#20b69f" d="M266.271 316.75v27.774c0 5.687-4.615 10.302-10.302 10.302h-39.167c5.687 0 10.302-4.615 10.302-10.302V316.75c0-5.687-4.615-10.302-10.302-10.302h39.167c5.687 0 10.302 4.615 10.302 10.302z" opacity="1" data-original="#20b69f"></path><path fill="#e8edf1" d="M159.108 96.107c-46.296 0-83.96 37.665-83.96 83.961s37.664 83.96 83.96 83.96 83.96-37.664 83.96-83.96-37.665-83.961-83.96-83.961zm56.514 122.626c-5.423-2.364-11.477-4.359-17.986-5.948 1.532-7.742 2.519-16.129 2.884-24.991h26.647a68.07 68.07 0 0 1-11.545 30.939zM91.048 187.794h26.647c.365 8.861 1.352 17.247 2.884 24.989-6.509 1.588-12.564 3.584-17.987 5.947a68.072 68.072 0 0 1-11.544-30.936zm11.545-46.393c5.422 2.364 11.477 4.359 17.986 5.948-1.532 7.743-2.519 16.13-2.884 24.992H91.048a68.078 68.078 0 0 1 11.545-30.94zm75.744-6.235a160.879 160.879 0 0 1-19.226 1.136c-6.602 0-13.059-.392-19.233-1.138 5.402-15.133 13.013-23.605 19.229-23.605 6.217 0 13.829 8.473 19.23 23.607zm9.217-17.397a68.72 68.72 0 0 1 17.256 11.317c-3.446 1.263-7.143 2.373-11.05 3.32-1.775-5.388-3.86-10.291-6.206-14.637zm-54.402 54.572c.364-8.096 1.299-15.496 2.632-22.147a173.807 173.807 0 0 0 23.327 1.561c7.992 0 15.83-.542 23.32-1.56 1.333 6.651 2.267 14.051 2.632 22.146zm51.911 15.453c-.364 8.096-1.299 15.495-2.632 22.147a173.807 173.807 0 0 0-23.327-1.561c-7.991 0-15.83.542-23.32 1.56-1.333-6.651-2.267-14.05-2.632-22.146zm-60.611-55.382a101.966 101.966 0 0 1-11.05-3.324 68.717 68.717 0 0 1 17.259-11.319c-2.347 4.348-4.433 9.252-6.209 14.643zm.002 95.316c1.776 5.388 3.86 10.29 6.206 14.636a68.744 68.744 0 0 1-17.26-11.32c3.446-1.263 7.15-2.369 11.054-3.316zm15.426-2.752a160.595 160.595 0 0 1 19.223-1.144c6.602 0 13.059.392 19.233 1.138-5.401 15.132-13.013 23.605-19.229 23.605-6.215-.001-13.825-8.471-19.227-23.599zm53.883 2.746a101.81 101.81 0 0 1 11.05 3.324 68.711 68.711 0 0 1-17.258 11.319c2.346-4.348 4.432-9.252 6.208-14.643zm6.757-55.381c-.365-8.861-1.352-17.248-2.884-24.99 6.51-1.588 12.564-3.584 17.988-5.948a68.075 68.075 0 0 1 11.543 30.937H200.52z" opacity="1" data-original="#e8edf1" class=""></path><g fill="#5169cd"><path d="M472.178 91.914h-4.28V77.921h4.28a7.725 7.725 0 0 0 7.726-7.726 7.725 7.725 0 0 0-7.726-7.726h-37.159c-10.454 0-18.959 8.505-18.959 18.959v6.982c0 10.454 8.505 18.959 18.959 18.959h37.159a7.725 7.725 0 0 0 7.726-7.726 7.726 7.726 0 0 0-7.726-7.729zm-40.665-3.506v-6.982a3.509 3.509 0 0 1 3.506-3.506h17.427v13.994h-17.427a3.51 3.51 0 0 1-3.506-3.506zM472.178 169.496h-48.391a7.726 7.726 0 1 0 0 15.452h48.391c4.268 0 7.726-3.459 7.726-7.726s-3.458-7.726-7.726-7.726zM460.08 114.732c-10.931 0-19.824 8.893-19.824 19.825v5.249c0 2.41-1.962 4.372-4.372 4.372s-4.371-1.962-4.371-4.372v-17.348a7.726 7.726 0 1 0-15.452 0v17.348c0 10.932 8.893 19.825 19.824 19.825 10.932 0 19.825-8.893 19.825-19.825v-5.249c0-2.41 1.961-4.372 4.371-4.372s4.371 1.962 4.371 4.372v17.348a7.726 7.726 0 1 0 15.452 0v-17.348c0-10.931-8.893-19.825-19.824-19.825z" fill="#5169cd" opacity="1" data-original="#5169cd" class=""></path></g><g fill="#3351c5"><path d="M479.9 70.19c0-4.26-3.45-7.72-7.72-7.72h-1.42v15.45h1.42c4.27 0 7.72-3.46 7.72-7.73zm-7.72 21.72h-1.42v15.46h1.42c4.27 0 7.72-3.46 7.72-7.73s-3.45-7.73-7.72-7.73zM479.9 177.22c0 4.27-3.45 7.73-7.72 7.73h-1.42V169.5h1.42c4.27 0 7.72 3.45 7.72 7.72zM479.9 134.56v17.35c0 4.26-3.45 7.72-7.72 7.72-.49 0-.96-.04-1.42-.13v-41.62c5.49 3.51 9.14 9.68 9.14 16.68z" fill="#3351c5" opacity="1" data-original="#3351c5" class=""></path></g><g fill="#e8edf1"><path d="M54.698 81.616H39.814a7.726 7.726 0 1 1 0-15.452h14.884a7.726 7.726 0 1 1 0 15.452zM229.588 399.795H88.62a7.726 7.726 0 1 1 0-15.452h140.968a7.726 7.726 0 1 1 0 15.452zM229.588 429.515H88.62a7.726 7.726 0 1 1 0-15.452h140.968a7.726 7.726 0 1 1 0 15.452z" fill="#e8edf1" opacity="1" data-original="#e8edf1" class=""></path></g><path fill="#3351c5" d="M482.157 218.302c0-3.3-2.096-6.234-5.215-7.307l-6.182-2.124v18.862l6.182-2.124a7.728 7.728 0 0 0 5.215-7.307z" opacity="1" data-original="#3351c5" class=""></path></g></svg>